<?xml version="1.0" encoding="iso-8859-1"?>
<!-- Generator: Adobe Illustrator 19.0.0, SVG Export Plug-In . SVG Version: 6.00 Build 0)  -->
<svg version="1.1" id="Layer_1" xmlns="http://www.w3.org/2000/svg" xmlns:xlink="http://www.w3.org/1999/xlink" x="0px" y="0px"
	 viewBox="0 0 480 480" style="enable-background:new 0 0 480 480;" xml:space="preserve">
<g>
	<path style="fill:#2F423F;" d="M80,129.6c4,6.4,3.2,14.4-3.2,18.4l0,0c-6.4,4-14.4,3.2-18.4-3.2L13.6,81.6
		c-4-6.4-3.2-14.4,3.2-18.4l0,0c6.4-4,14.4-3.2,18.4,3.2L80,129.6z"/>
	<path style="fill:#2F423F;" d="M124,113.6c3.2,6.4,0,14.4-7.2,17.6l0,0c-6.4,3.2-14.4,0-17.6-7.2L68.8,52.8
		c-3.2-6.4,0-14.4,7.2-17.6l0,0c6.4-3.2,14.4,0,17.6,7.2L124,113.6z"/>
	<path style="fill:#2F423F;" d="M172.8,108c1.6,7.2-3.2,14.4-10.4,15.2l0,0c-7.2,1.6-14.4-3.2-15.2-10.4l-14.4-76
		c-1.6-7.2,3.2-14.4,10.4-15.2l0,0c7.2-1.6,14.4,3.2,15.2,10.4L172.8,108z"/>
	<path style="fill:#2F423F;" d="M400,350.4c-4-6.4-3.2-14.4,3.2-18.4l0,0c6.4-4,14.4-3.2,18.4,3.2l44.8,63.2
		c4,6.4,3.2,14.4-3.2,18.4l0,0c-6.4,4-14.4,3.2-18.4-3.2L400,350.4z"/>
	<path style="fill:#2F423F;" d="M356,366.4c-3.2-6.4,0-14.4,7.2-17.6l0,0c6.4-3.2,14.4,0,17.6,7.2l30.4,71.2
		c3.2,6.4,0,14.4-7.2,17.6l0,0c-6.4,3.2-14.4,0-17.6-7.2L356,366.4z"/>
	<path style="fill:#2F423F;" d="M307.2,372c-1.6-7.2,3.2-14.4,10.4-15.2l0,0c7.2-1.6,14.4,3.2,15.2,10.4l14.4,76
		c1.6,7.2-3.2,14.4-10.4,15.2l0,0c-7.2,1.6-14.4-3.2-15.2-10.4L307.2,372z"/>
	<path style="fill:#2F423F;" d="M240,413.6c119.2,0,218.4-77.6,237.6-173.6l0,0l0,0l0,0l0,0C458.4,144,359.2,66.4,240,66.4
		S21.6,144,2.4,240l0,0l0,0l0,0l0,0C21.6,336,120.8,413.6,240,413.6z"/>
</g>
<path style="fill:#F7F6ED;" d="M240,384c119.2,0,218.4-64,237.6-144l0,0l0,0l0,0l0,0C458.4,160,359.2,96,240,96S21.6,160,2.4,240
	l0,0l0,0l0,0l0,0C21.6,320,120.8,384,240,384z"/>
<path style="fill:#EAE9DA;" d="M0,240h2.4l0,0l0,0l0,0C21.6,320,120.8,384,240,384s218.4-64,237.6-144l0,0l0,0l0,0h2.4"/>
<circle style="fill:#EF880C;" cx="240" cy="240" r="112.8"/>
<path style="fill:#ED690F;" d="M240,127.2c62.4,0,112.8,50.4,112.8,112.8S302.4,352.8,240,352.8"/>
<circle style="fill:#5E6664;" cx="240" cy="240" r="49.6"/>
<path style="fill:#2F423F;" d="M275.2,204.8c19.2,19.2,19.2,51.2,0,70.4s-51.2,19.2-70.4,0"/>
<g>
	<circle style="fill:#FFFFFF;" cx="208.8" cy="204" r="24.8"/>
	<path style="fill:#FFFFFF;" d="M287.2,272.8c0,6.4-4.8,11.2-11.2,11.2s-12-4.8-12-11.2c0-6.4,4.8-11.2,11.2-11.2
		S287.2,266.4,287.2,272.8z"/>
</g>
<g>
</g>
<g>
</g>
<g>
</g>
<g>
</g>
<g>
</g>
<g>
</g>
<g>
</g>
<g>
</g>
<g>
</g>
<g>
</g>
<g>
</g>
<g>
</g>
<g>
</g>
<g>
</g>
<g>
</g>
</svg>
